<?xml version="1.0" encoding="UTF-8"?>
<svg width="24px" height="24px" viewBox="0 0 24 24" version="1.1" xmlns="http://www.w3.org/2000/svg" xmlns:xlink="http://www.w3.org/1999/xlink">
    <!-- Generator: Sketch 53.1 (72631) - https://sketchapp.com -->
    <title>Fill</title>
    <desc>Created with Sketch.</desc>
    <g id="Symbols" stroke="none" stroke-width="1" fill="none" fill-rule="evenodd">
        <g id="Icon/Benefits/Speed" transform="translate(-4.000000, -4.000000)" fill="#1637B5">
            <path d="M17.2779764,15.3902884 L21.4141785,15.3902884 C22.1505581,15.3902884 22.7475118,15.9872421 22.7475118,16.7236218 C22.7475118,17.4600014 22.1505581,18.0569551 21.4141785,18.0569551 L15.3239887,18.0569551 C14.587609,18.0569551 13.9906554,17.4600014 13.9906554,16.7236218 C13.9906554,16.249342 14.2382871,15.8328997 14.6113098,15.5965356 L14.6113098,9.24441966 C14.6113098,8.50803999 15.2082634,7.91108633 15.9446431,7.91108633 C16.6810228,7.91108633 17.2779764,8.50803999 17.2779764,9.24441966 L17.2779764,15.3902884 Z M16,28 C9.372583,28 4,22.627417 4,16 C4,9.372583 9.372583,4 16,4 C22.627417,4 28,9.372583 28,16 C28,22.627417 22.627417,28 16,28 Z M16,25.3333333 C21.1546577,25.3333333 25.3333333,21.1546577 25.3333333,16 C25.3333333,10.8453423 21.1546577,6.66666667 16,6.66666667 C10.8453423,6.66666667 6.66666667,10.8453423 6.66666667,16 C6.66666667,21.1546577 10.8453423,25.3333333 16,25.3333333 Z" id="Fill"></path>
        </g>
    </g>
</svg>