<?xml version="1.0" encoding="UTF-8"?>
<svg width="24px" height="24px" viewBox="0 0 24 24" version="1.1" xmlns="http://www.w3.org/2000/svg" xmlns:xlink="http://www.w3.org/1999/xlink">
    <!-- Generator: Sketch 53.1 (72631) - https://sketchapp.com -->
    <title>Fill</title>
    <desc>Created with Sketch.</desc>
    <g id="Symbols" stroke="none" stroke-width="1" fill="none" fill-rule="evenodd">
        <g id="Icon/Benefits/Consistency" transform="translate(-4.000000, -4.000000)" fill="#1637B5">
            <path d="M6.82352941,5.95150176 C9.57313294,4.97430642 12.6379841,5.3288264 15.925478,6.97257338 C19.2927333,8.65620103 22.5896196,8.65620103 25.9568749,6.97257338 L28,5.95101084 L28,20.4019303 L27.2195957,20.7921325 C23.0574392,22.8732107 18.8249137,22.8732107 14.6627573,20.7921325 C11.9032344,19.4123711 10.0060188,19.4123711 7.84210891,20.2238373 C7.67776095,20.2854678 7.09212128,20.5192013 6.82352941,20.6225766 L6.82352941,23.7647059 L4,23.7647059 L6.82352941,23.7647059 L6.82352941,28 L4,28 L4,23.7647059 L4,6.11764706 L4,4 L6.82352941,4 L6.82352941,5.95150176 L6.82352941,6.11764706 L6.39012383,6.11764706 L6.82352941,6.11764706 L6.82352941,5.95150176 Z M6.82352941,17.5903451 C6.83321843,17.5866648 6.84229359,17.5832373 6.85070155,17.5800843 C9.70639947,16.5091976 12.4104911,16.5091976 15.925478,18.266691 C19.032199,19.8200515 22.079019,19.9402395 25.1764706,18.6272551 L25.1764706,10.350735 C21.6776002,11.5236477 18.1455428,11.2394076 14.6627573,9.49801486 C11.6156268,7.9744496 9.05122305,7.84172893 6.82352941,9.03285841 L6.82352941,17.5903451 Z" id="Fill"></path>
        </g>
    </g>
</svg>