<?xml version="1.0" encoding="UTF-8"?>
<svg width="24px" height="26px" viewBox="0 0 24 26" version="1.1" xmlns="http://www.w3.org/2000/svg" xmlns:xlink="http://www.w3.org/1999/xlink">
    <!-- Generator: Sketch 53.1 (72631) - https://sketchapp.com -->
    <title>Fill</title>
    <desc>Created with Sketch.</desc>
    <g id="Symbols" stroke="none" stroke-width="1" fill="none" fill-rule="evenodd">
        <g id="Icon/Benefits/Scale" transform="translate(-4.000000, -3.000000)" fill="#1637B5">
            <path d="M17.0780335,4.21480832 L26.4458609,8.87100665 C27.7264426,9.50750881 28.2652396,11.0534295 27.6492977,12.3239171 C27.4024228,12.8331397 26.9922218,13.2433225 26.4829882,13.4901749 L17.1896166,17.9951634 C16.4773181,18.3404521 15.6399085,18.3336848 14.9219665,17.9768378 L5.55413911,13.3206395 C4.27355743,12.6841374 3.73476041,11.1382167 4.35070228,9.86772905 C4.59757716,9.35850652 5.00777816,8.94832371 5.51701183,8.70147123 L14.8103834,4.19648277 C15.5226819,3.85119405 16.3600915,3.8579614 17.0780335,4.21480832 Z M15.9627721,6.51522969 L6.66940052,11.0202181 L16.0372279,15.6764165 L25.3305995,11.171428 L15.9627721,6.51522969 Z M17.2956771,22.6300914 C16.522152,23.0557297 15.5765503,23.04809 14.79608,22.6098964 L5.07263236,18.0384279 C4.42570077,17.7342737 4.13940283,16.9671729 4.433168,16.3250602 C4.72693317,15.6829475 5.48951857,15.408978 6.13645016,15.7131322 L15.9100264,20.3081686 L16.0277978,20.3710458 L16.1445861,20.3100574 L25.8447535,15.8728154 C26.4868806,15.5790809 27.2539684,15.8654151 27.5580921,16.5123606 C27.8622159,17.1593061 27.58821,17.9218779 26.9460828,18.2156124 L17.2956771,22.6300914 Z M17.2956771,27.7343901 C16.522152,28.1600284 15.5765503,28.1523888 14.79608,27.7141951 L5.07263236,23.1427266 C4.42570077,22.8385724 4.13940283,22.0714716 4.433168,21.4293589 C4.72693317,20.7872462 5.48951857,20.5132767 6.13645016,20.8174309 L15.9100264,25.4124673 L16.0277978,25.4753445 L16.1445861,25.4143561 L25.8447535,20.9771141 C26.4868806,20.6833796 27.2539684,20.9697138 27.5580921,21.6166593 C27.8622159,22.2636048 27.58821,23.0261766 26.9460828,23.3199111 L17.2956771,27.7343901 Z" id="Fill"></path>
        </g>
    </g>
</svg>