<?xml version="1.0" encoding="UTF-8"?>
<svg width="444px" height="444px" viewBox="0 0 444 444" version="1.1" xmlns="http://www.w3.org/2000/svg" xmlns:xlink="http://www.w3.org/1999/xlink">
    <!-- Generator: Sketch 55.1 (78136) - https://sketchapp.com -->
    <title>Placeholder/Image</title>
    <desc>Created with Sketch.</desc>
    <g id="DLS" stroke="none" stroke-width="1" fill="none" fill-rule="evenodd">
        <g id="Placeholders" transform="translate(-1000.000000, -268.000000)">
            <g id="CTA" transform="translate(80.000000, 174.000000)">
                <g id="Stack" transform="translate(0.000000, 58.000000)">
                    <g id="Group" transform="translate(920.000000, 0.000000)">
                        <g id="Placeholder" transform="translate(0.000000, 36.000000)">
                            <rect id="Container" fill="#C2C5CD" x="0" y="0" width="444" height="444"></rect>
                            <g id="Icon/System/Image" transform="translate(158.000000, 158.000000)" fill="#808287">
                                <path d="M98.1982567,48.5838877 L88.3795025,22.4842606 C87.6537517,20.5575419 85.526419,19.5367516 83.6323632,20.204619 L18.3656789,43.1872229 C16.4687432,43.8550903 15.5183554,45.9587335 16.2431461,47.8854522 L26.5956536,75.405108 L26.5956536,60.6527421 C26.5956536,53.9981523 32.109823,48.5838877 38.8873362,48.5838877 L56.1325554,48.5838877 L76.701252,34.6531561 L88.6031796,48.5838877 L98.1982567,48.5838877 L98.1982567,48.5838877 Z M108.343407,56.9391772 L38.8873362,56.9391772 C36.868482,56.9391772 35.231703,58.6037509 35.231703,60.6536684 L35.231703,104.287361 C35.231703,106.337279 36.868482,108 38.8873362,108 L108.343407,108 C110.363221,108 112,106.337279 112,104.287361 L112,60.6536684 C111.99904,58.6028246 110.362261,56.9391772 108.343407,56.9391772 L108.343407,56.9391772 Z M103.042355,98.7165509 L45.4680519,98.7165509 L45.4680519,90.7577208 L54.3258585,70.8652772 L67.6130484,86.7810847 L80.0775288,74.4510117 L96.1035635,68.8718644 L103.042355,83.7937445 L103.042355,98.7165509 L103.042355,98.7165509 Z" id="Fill"></path>
                            </g>
                        </g>
                    </g>
                </g>
            </g>
        </g>
    </g>
</svg>