<?xml version="1.0" encoding="UTF-8"?>
<svg width="444px" height="444px" viewBox="0 0 444 444" version="1.1" xmlns="http://www.w3.org/2000/svg" xmlns:xlink="http://www.w3.org/1999/xlink">
    <!-- Generator: Sketch 55.1 (78136) - https://sketchapp.com -->
    <title>Placeholder/Profile</title>
    <desc>Created with Sketch.</desc>
    <g id="DLS" stroke="none" stroke-width="1" fill="none" fill-rule="evenodd">
        <g id="Placeholders" transform="translate(-80.000000, -268.000000)">
            <g id="CTA" transform="translate(80.000000, 174.000000)">
                <g id="Stack" transform="translate(0.000000, 58.000000)">
                    <g id="Group">
                        <g id="Placeholder" transform="translate(0.000000, 36.000000)">
                            <rect id="Container" fill="#C2C5CD" x="0" y="0" width="444" height="444"></rect>
                            <g id="Icon/System/Person" transform="translate(158.000000, 158.000000)" fill="#808287">
                                <path d="M91.1669787,87.7226667 C78.5787234,82.9301333 74.5548936,78.8885333 74.5548936,70.2346667 C74.5548936,65.0389333 78.3989787,66.736 80.0861277,57.2213333 C80.7867234,53.2746667 84.1814468,57.1573333 84.8309787,48.1472 C84.8309787,44.5557333 82.978383,43.664 82.978383,43.664 C82.978383,43.664 83.92,38.3498667 84.2886809,34.2602667 C84.7451915,29.1648 81.4699574,16 63.9989787,16 C46.528,16 43.2507234,29.1648 43.7092766,34.2602667 C44.0779574,38.3498667 45.0195745,43.664 45.0195745,43.664 C45.0195745,43.664 43.1669787,44.5557333 43.1669787,48.1472 C43.8154894,57.1573333 47.2102128,53.2746667 47.9108085,57.2213333 C49.6,66.7349333 53.4420426,65.0389333 53.4420426,70.2346667 C53.4420426,78.8885333 49.4202553,82.9301333 36.832,87.7226667 C24.2039149,92.5290667 16,97.4293333 16,100.7712 L16,112 L64,112 L112,112 L112,100.7712 C111.998979,97.4293333 103.795064,92.5290667 91.1669787,87.7226667 L91.1669787,87.7226667 Z" id="Fill"></path>
                            </g>
                        </g>
                    </g>
                </g>
            </g>
        </g>
    </g>
</svg>