<?xml version="1.0" encoding="UTF-8"?>
<svg width="444px" height="444px" viewBox="0 0 444 444" version="1.1" xmlns="http://www.w3.org/2000/svg" xmlns:xlink="http://www.w3.org/1999/xlink">
    <!-- Generator: Sketch 55.1 (78136) - https://sketchapp.com -->
    <title>Placeholder/Article</title>
    <desc>Created with Sketch.</desc>
    <g id="DLS" stroke="none" stroke-width="1" fill="none" fill-rule="evenodd">
        <g id="Placeholders" transform="translate(-540.000000, -268.000000)">
            <g id="CTA" transform="translate(80.000000, 174.000000)">
                <g id="Stack" transform="translate(0.000000, 58.000000)">
                    <g id="Group" transform="translate(460.000000, 0.000000)">
                        <g id="Placeholder" transform="translate(0.000000, 36.000000)">
                            <rect id="Container" fill="#C2C5CD" x="0" y="0" width="444" height="444"></rect>
                            <g id="Icon/System/Book" transform="translate(158.000000, 158.000000)" fill="#808287">
                                <path d="M94.3927304,39.8977783 L53.2565028,16.8835383 C47.6228309,13.6612867 36.5127398,19.885482 33.3210572,25.3644013 C31.8957254,27.8116057 32.0017796,29.5810158 32.0017796,30.5803405 L32.509194,82.5541576 C32.5430217,83.6566897 33.8239003,85.1462492 34.9200984,85.8766395 C37.2020921,87.3959703 71.7620454,110.816093 72.7421324,111.479002 C73.2687464,111.834273 73.8904434,112 74.5048263,112 C75.0277832,112 75.5525686,111.873968 76.0279839,111.617934 C77.0674979,111.063195 77.7138799,109.987457 77.7138799,108.819428 L77.7138799,54.2297025 C77.7138799,53.0934296 77.103154,52.0434936 76.1084388,51.4758533 L38.7188499,28.8208542 C39.1421524,27.9287063 40.8061062,26.0412032 43.8633926,24.3035492 C47.0843316,22.4726116 49.4970645,23.1642991 50.0511062,23.3965156 C50.0511062,23.3965156 85.9339942,44.2404248 87.0320208,44.8606611 C88.1245618,45.479905 88.1465041,45.5731885 88.1465041,46.6330483 L88.1465041,98.435184 C88.1465041,101.019337 90.5647226,102.077212 92.3374733,102.077212 C94.1093097,102.077212 96,100.191693 96,98.435184 L96,42.6546046 C95.9972572,41.5163469 95.3837886,40.4654186 94.3927304,39.8977783 L94.3927304,39.8977783 Z" id="Fill"></path>
                            </g>
                        </g>
                    </g>
                </g>
            </g>
        </g>
    </g>
</svg>