<?xml version="1.0" encoding="UTF-8"?>
<svg width="272px" height="32px" viewBox="0 0 272 32" version="1.1" xmlns="http://www.w3.org/2000/svg" xmlns:xlink="http://www.w3.org/1999/xlink">
    <!-- Generator: Sketch 55.2 (78181) - https://sketchapp.com -->
    <title>uxb-logo-white</title>
    <desc>Created with Sketch.</desc>
    <g id="Symbols" stroke="none" stroke-width="1" fill="none" fill-rule="evenodd">
        <g id="Footer/Desktop" transform="translate(-208.000000, -32.000000)" fill="#FFFFFF" fill-rule="nonzero">
            <g id="uxb-logo-white" transform="translate(208.000000, 32.000000)">
                <g id="Group">
                    <path d="M69.6584326,14.9290667 C72.8260815,13.9605333 74.8511599,11.3621333 74.8511599,8.32 C74.8511599,3.60533333 70.0549216,0.5248 62.6154232,0.5248 L56.5018182,0.5248 L47.6724765,15.7226667 L56.5018182,31.4026667 L63.3615047,31.4026667 C70.8862696,31.4026667 75.7763009,28.0106667 75.7763009,22.7242667 C75.7763009,18.8501333 73.3547335,15.7653333 69.6584326,14.9290667 Z M57.1583699,8.0128 L62.0441379,8.0128 C63.4510345,8.0128 64.3761755,8.84906667 64.3761755,10.1717333 C64.3761755,11.5370667 63.4510345,12.4202667 62.0441379,12.4202667 L57.1583699,12.4202667 L57.1583699,8.0128 Z M62.0441379,23.9146667 L57.1583699,23.9146667 L57.1583699,19.2 L62.0441379,19.2 C63.9370533,19.2 65.1691536,20.0832 65.1691536,21.4485333 C65.1691536,22.9461333 63.9370533,23.9146667 62.0441379,23.9146667 Z" id="Shape"></path>
                    <path d="M19.4151724,31.4069333 L28.2445141,15.7269333 L19.4194357,0.5376 L19.4194357,18.3253333 C19.4194357,21.4101333 17.4838871,23.3472 14.97279,23.3472 C12.4190596,23.3472 10.219185,21.3632 10.219185,18.3253333 L10.219185,0.529066667 L0.00852664577,0.529066667 L0.00852664577,18.3253333 C0.00852664577,26.5173333 5.28652038,31.4069333 14.8065204,31.4069333 L19.4151724,31.4069333 Z" id="Path"></path>
                    <path d="M25.3326646,31.4069333 L25.3326646,31.4069333" id="Path"></path>
                    <polygon id="Path" points="22.9281505 0.5248 22.9324138 0.533333333 22.9324138 0.5248"></polygon>
                    <polygon id="Path" points="52.9888401 0.5248 51.5862069 0.5248 42.4456426 0.5248 37.960627 7.78666667 33.471348 0.5248 28.427837 0.5248 22.9324138 0.5248 22.9324138 0.533333333 31.7574922 15.7226667 22.9281505 31.4069333 28.8456426 31.4069333 32.8574295 31.4069333 37.960627 23.4368 43.0595611 31.4069333 51.5862069 31.4069333 52.9888401 31.4069333 44.1594984 15.7226667"></polygon>
                </g>
                <g id="Group" transform="translate(92.087774, 1.280000)">
                    <g>
                        <path d="M9.54557994,6.3232 C9.54557994,9.01546667 7.85730408,10.6624 5.07761755,10.6624 C2.29793103,10.6624 0.592601881,9.01546667 0.592601881,6.3232 L0.592601881,0.290133333 L2.32777429,0.290133333 L2.32777429,6.3232 C2.32777429,8.05973333 3.40213166,9.10506667 5.09040752,9.10506667 C6.76589342,9.10506667 7.81040752,8.0768 7.81040752,6.3232 L7.81040752,0.290133333 L9.54557994,0.290133333 L9.54557994,6.3232 L9.54557994,6.3232 Z" id="Path"></path>
                        <path d="M21.9561129,1.27573333 L21.2356113,2.80746667 C20.1186207,2.12906667 18.9973668,1.85173333 18.221442,1.85173333 C17.2067712,1.85173333 16.5459561,2.23573333 16.5459561,2.92693333 C16.5459561,5.17973333 22.1053292,3.97226667 22.088315,7.68 C22.088315,9.51893333 20.4724765,10.6538667 18.208652,10.6538667 C16.5885893,10.6538667 15.0623197,9.99253333 14.0050157,9.01973333 L14.7553605,7.51786667 C15.8126646,8.49066667 17.1342947,9.01973333 18.2384953,9.01973333 C19.4450157,9.01973333 20.1655172,8.5632 20.1655172,7.7696 C20.1655172,5.47413333 14.6061442,6.75413333 14.6061442,3.08906667 C14.6061442,1.32266667 16.1196238,0.21756829 18.353605,0.21756829 C19.6922884,0.213333333 20.9968652,0.64 21.9561129,1.27573333 Z" id="Path"></path>
                        <polygon id="Path" points="28.7902194 1.84746667 28.7902194 4.62933333 33.8166771 4.62933333 33.8166771 6.19093333 28.7902194 6.19093333 28.7902194 9.03253333 34.5840752 9.03253333 34.5840752 10.5941333 27.055047 10.5941333 27.055047 0.2944 34.409279 0.2944 34.409279 1.856 28.7902194 1.856"></polygon>
                        <path d="M44.2873981,7.47093333 C44.1424451,7.48373333 43.9804389,7.48373333 43.8184326,7.48373333 L41.3755486,7.48373333 L41.3755486,10.5898667 L39.6403762,10.5898667 L39.6403762,0.290133333 L43.8184326,0.290133333 C46.4489028,0.290133333 47.9666458,1.57013333 47.9666458,3.80586667 C47.9666458,5.4528 47.203511,6.6176 45.8349843,7.14666667 L48.1457053,10.5898667 L46.1760502,10.5898667 L44.2873981,7.47093333 Z M43.8184326,5.9264 C45.4043887,5.9264 46.3167398,5.248 46.3167398,3.8528 C46.3167398,2.50026667 45.4043887,1.85173333 43.8184326,1.85173333 L41.3755486,1.85173333 L41.3755486,5.9264 L43.8184326,5.9264 Z" id="Shape"></path>
                        <polygon id="Path" points="61.6817555 1.84746667 61.6817555 4.62933333 66.7082132 4.62933333 66.7082132 6.19093333 61.6817555 6.19093333 61.6817555 9.03253333 67.4756113 9.03253333 67.4756113 10.5941333 59.9423197 10.5941333 59.9423197 0.2944 67.2965517 0.2944 67.2965517 1.856 61.6817555 1.856"></polygon>
                        <polygon id="Path" points="81.0415047 10.5898667 78.9695298 10.5898667 76.1898433 6.70293333 73.4229467 10.5898667 71.393605 10.5898667 75.1410658 5.30773333 71.6536677 0.290133333 73.6702194 0.290133333 76.1855799 3.8656 78.7137304 0.290133333 80.7430721 0.290133333 77.2855172 5.2352"></polygon>
                        <path d="M89.74721,0.290133333 C92.335047,0.290133333 93.8186834,1.57013333 93.8186834,3.80586667 C93.8186834,6.1312 92.335047,7.48373333 89.74721,7.48373333 L87.3810658,7.48373333 L87.3810658,10.5898667 L85.6458934,10.5898667 L85.6458934,0.290133333 L89.74721,0.290133333 Z M87.3810658,5.9264 L89.6747335,5.9264 C91.264953,5.9264 92.1602508,5.248 92.1602508,3.8528 C92.1602508,2.50026667 91.264953,1.85173333 89.6747335,1.85173333 L87.3810658,1.85173333 L87.3810658,5.9264 Z" id="Shape"></path>
                        <polygon id="Path" points="100.213668 1.84746667 100.213668 4.62933333 105.244389 4.62933333 105.244389 6.19093333 100.213668 6.19093333 100.213668 9.03253333 106.007524 9.03253333 106.007524 10.5941333 98.4784953 10.5941333 98.4784953 0.2944 105.828464 0.2944 105.828464 1.856 100.213668 1.856"></polygon>
                        <path d="M115.710846,7.47093333 C115.56163,7.48373333 115.403887,7.48373333 115.241881,7.48373333 L112.80326,7.48373333 L112.80326,10.5898667 L111.068088,10.5898667 L111.068088,0.290133333 L115.246144,0.290133333 C117.876614,0.290133333 119.394357,1.57013333 119.394357,3.80586667 C119.394357,5.4528 118.631223,6.6176 117.262696,7.14666667 L119.573417,10.5898667 L117.603762,10.5898667 L115.710846,7.47093333 Z M115.241881,5.9264 C116.8321,5.9264 117.740188,5.248 117.740188,3.8528 C117.740188,2.50026667 116.827837,1.85173333 115.241881,1.85173333 L112.80326,1.85173333 L112.80326,5.9264 L115.241881,5.9264 Z" id="Shape"></path>
                        <polygon id="Path" points="124.633981 10.5898667 124.633981 0.290133333 126.369154 0.290133333 126.369154 10.5898667"></polygon>
                        <polygon id="Path" points="133.753229 1.84746667 133.753229 4.62933333 138.779687 4.62933333 138.779687 6.19093333 133.753229 6.19093333 133.753229 9.03253333 139.547085 9.03253333 139.547085 10.5941333 132.018056 10.5941333 132.018056 0.2944 139.372288 0.2944 139.372288 1.856 133.753229 1.856"></polygon>
                        <polygon id="Path" points="151.821191 10.5898667 146.338558 3.20426667 146.338558 10.5898667 144.603386 10.5898667 144.603386 0.290133333 146.308715 0.290133333 151.821191 7.6928 151.821191 0.290133333 153.52652 0.290133333 153.52652 10.5898667"></polygon>
                        <path d="M167.655172,1.83466667 L166.640502,3.10186667 C165.890157,2.2912 164.815799,1.792 163.771285,1.792 C161.7121,1.792 160.096301,3.38346667 160.096301,5.41013333 C160.096301,7.44106667 161.716364,9.04533333 163.771285,9.04533333 C164.803009,9.04533333 165.860313,8.576 166.640502,7.82506667 L167.667962,8.9728 C166.623448,10.0010667 165.139812,10.6666667 163.681755,10.6666667 C160.667586,10.6666667 158.327022,8.384 158.327022,5.4272 C158.327022,2.50026667 160.693166,0.247444279 163.737179,0.247444279 C165.199498,0.2432 166.653292,0.849066667 167.655172,1.83466667 Z" id="Path"></path>
                        <polygon id="Path" points="174.109843 1.84746667 174.109843 4.62933333 179.140564 4.62933333 179.140564 6.19093333 174.109843 6.19093333 174.109843 9.03253333 179.903699 9.03253333 179.903699 10.5941333 172.374671 10.5941333 172.374671 0.2944 179.724639 0.2944 179.724639 1.856 174.109843 1.856"></polygon>
                        <path d="M5.29931034,17.7749333 C7.74645768,17.7749333 9.32388715,18.7904 9.32388715,20.3392 C9.32388715,21.3376 8.65880878,22.1952 7.61429467,22.5109333 C8.82934169,22.784 9.62658307,23.7994667 9.62658307,25.0752 C9.62658307,26.8117333 8.01931034,27.9296 5.54231975,27.9296 L0.157742947,27.9296 L0.157742947,17.7749333 L5.29931034,17.7749333 L5.29931034,17.7749333 Z M3.50445141,21.6874667 L5.11172414,21.6874667 C5.57642633,21.6874667 5.87912226,21.3973333 5.87912226,20.9493333 C5.87912226,20.5141333 5.57642633,20.2410667 5.11172414,20.2410667 L3.50445141,20.2410667 L3.50445141,21.6874667 Z M3.50445141,25.4677333 L5.11172414,25.4677333 C5.73416928,25.4677333 6.13918495,25.1477333 6.13918495,24.6570667 C6.13918495,24.2090667 5.73416928,23.9189333 5.11172414,23.9189333 L3.50445141,23.9189333 L3.50445141,25.4677333 Z" id="Shape"></path>
                        <polygon id="Path" points="22.6894044 20.3264 22.6894044 21.5722667 27.4387461 21.5722667 27.4387461 24.1237333 22.6894044 24.1237333 22.6894044 25.3824 28.0441379 25.3824 28.0441379 27.9338667 19.329906 27.9338667 19.329906 17.7792 27.9119749 17.7792 27.9119749 20.3306667 22.6894044 20.3306667"></polygon>
                        <polygon id="Path" points="38.0075235 27.9296 38.0075235 17.7749333 41.3627586 17.7749333 41.3627586 27.9296"></polygon>
                        <path d="M56.1181191,25.2928 L54.8604389,25.2928 L54.8604389,27.9296 L51.5009404,27.9296 L51.5009404,17.7749333 L56.4080251,17.7749333 C59.1578683,17.7749333 60.7352978,19.0933333 60.7352978,21.4101333 C60.7352978,22.8864 60.1725392,23.9872 59.1280251,24.6272 L61.1232602,27.9296 L57.3331661,27.9296 L56.1181191,25.2928 Z M56.4080251,22.7456 C57.13279,22.7456 57.5505956,22.2976 57.5505956,21.5125333 C57.5505956,20.7573333 57.13279,20.3264 56.4080251,20.3264 L54.8604389,20.3264 L54.8604389,22.7456 L56.4080251,22.7456 Z" id="Shape"></path>
                        <path d="M80.2783699,23.6288 C80.2783699,26.3253333 78.3811912,28.0746667 75.4437618,28.0746667 C72.489279,28.0746667 70.5366771,26.3210667 70.5366771,23.6288 L70.5366771,17.7749333 L73.8919122,17.7749333 L73.8919122,23.6288 C73.8919122,24.6272 74.6166771,25.28 75.4565517,25.28 C76.2836364,25.28 76.9188715,24.6442667 76.9188715,23.6288 L76.9188715,17.7749333 L80.2741066,17.7749333 L80.2741066,23.6288 L80.2783699,23.6288 Z" id="Path"></path>
                        <polygon id="Path" points="95.8565517 20.4288 95.8565517 27.9338667 92.4970533 27.9338667 92.4970533 20.4288 89.615047 20.4288 89.615047 17.7792 98.7470846 17.7792 98.7470846 20.4288"></polygon>
                        <g transform="translate(119.799373, 17.493333)">
                            <path d="M4.56175549,0.341333333 C6.70194357,0.341333333 8.29642633,1.4336 8.29642633,3.06773333 C8.29642633,4.21973333 7.43097179,5.35893333 6.26282132,6.51093333 L4.41253918,8.3328 L8.52664577,8.3328 L8.52664577,10.6965333 L0.375172414,10.6965333 L0.375172414,8.77226667 L4.10984326,5.00906667 C4.60865204,4.49706667 5.00514107,3.9168 5.00514107,3.5072 C5.00514107,3.05493333 4.67260188,2.80746667 4.08,2.80746667 C3.24438871,2.80746667 2.19987461,3.3024 1.19799373,4.10453333 L0.0127899687,1.91573333 C1.44952978,0.938666667 2.95021944,0.341333333 4.56175549,0.341333333 Z" id="Path"></path>
                            <path d="M22.288652,0.384 C25.3539812,0.384 27.0848903,2.23573333 27.0848903,5.57653333 C27.0848903,8.93013333 25.3539812,10.7818667 22.288652,10.7818667 C19.1764263,10.7818667 17.4796238,8.93013333 17.4796238,5.57653333 C17.4796238,2.23573333 19.1764263,0.384 22.288652,0.384 Z M22.288652,8.58026667 C23.397116,8.58026667 23.8362382,7.76533333 23.8362382,5.57653333 C23.8362382,3.38773333 23.397116,2.5856 22.288652,2.5856 C21.1503448,2.5856 20.7112226,3.38773333 20.7112226,5.57653333 C20.7112226,7.76106667 21.1503448,8.58026667 22.288652,8.58026667 Z" id="Shape"></path>
                            <polygon id="Path" points="35.6626959 0.469333333 40.7317868 0.469333333 40.7317868 10.6922667 37.5598746 10.6922667 37.5598746 2.88853333 35.6626959 2.88853333 35.6626959 0.469333333"></polygon>
                            <path d="M54.4511599,0.341333333 C57.397116,0.341333333 59.1706583,2.32533333 59.1706583,5.46133333 C59.1706583,8.71253333 57.1839498,10.8288 54.1015674,10.8288 C52.8396238,10.8288 51.4455172,10.4789333 50.5331661,9.95413333 L51.7311599,7.82506667 C52.3237618,8.26453333 53.0826332,8.49493333 53.9011912,8.49493333 C55.4189342,8.49493333 56.1607524,7.72266667 56.1479624,6.336 C55.6789969,6.8736 54.9030721,7.25333333 53.8116614,7.25333333 C51.7183699,7.25333333 50.3668966,5.89653333 50.3668966,3.91253333 C50.3668966,1.72373333 52.0082759,0.341333333 54.4511599,0.341333333 Z M54.5406897,5.03466667 C55.3890909,5.03466667 55.8623197,4.5952 55.8623197,3.89546667 C55.8623197,3.2256 55.4359875,2.75626667 54.5705329,2.75626667 C53.7519749,2.75626667 53.2957994,3.1488 53.2957994,3.92106667 C53.2957994,4.64213333 53.739185,5.03466667 54.5406897,5.03466667 Z" id="Shape"></path>
                        </g>
                    </g>
                    <ellipse id="Oval" cx="109.925517" cy="23.2021333" rx="1.38984326" ry="1.39093333"></ellipse>
                </g>
            </g>
        </g>
    </g>
</svg>